<svg xmlns="http://www.w3.org/2000/svg" id="sw-js-blob-svg" version="1.1" viewBox="31.73 7.57 45.77 80.8">
                    <defs> 
                        <linearGradient id="sw-gradient" x1="0" x2="1" y1="1" y2="0">
                            <stop id="stop1" stop-color="rgba(130.488, 22.415, 0.046, 1)" offset="0%"/>
                            <stop id="stop2" stop-color="rgba(162.861, 82.425, 9.252, 1)" offset="100%"/>
                        </linearGradient>
                    </defs>
                <path fill="url(#sw-gradient)" d="M18,-30C23.3,-24.6,27.6,-19.6,27.5,-14.2C27.3,-8.8,22.7,-3.1,20.7,2.1C18.6,7.4,19,12.1,18.3,19.5C17.5,26.8,15.6,36.8,11.2,38.2C6.7,39.6,-0.3,32.3,-5.3,26.8C-10.3,21.3,-13.2,17.6,-15.3,14C-17.5,10.3,-19,6.6,-17.9,3.5C-16.8,0.5,-13.2,-2,-13.6,-8.3C-14,-14.7,-18.3,-25,-16.7,-32.1C-15.1,-39.2,-7.6,-43.2,-0.6,-42.3C6.3,-41.3,12.7,-35.5,18,-30Z" width="100%" height="100%" transform="translate(50 50)" stroke-width="0" style="transition: all 0.3s ease 0s;"/>
              </svg>